<?xml version="1.0" standalone="no"?>
<!DOCTYPE svg PUBLIC "-//W3C//DTD SVG 20010904//EN"
  "http://www.w3.org/TR/2001/REC-SVG-20010904/DTD/svg10.dtd">
<svg version="1.0" xmlns="http://www.w3.org/2000/svg"
     width="200.000000pt" height="200.000000pt" viewBox="0 0 200.000000 200.000000"
     preserveAspectRatio="xMidYMid meet">
  <metadata>
    Created by potrace 1.14, written by Peter Selinger 2001-2017
  </metadata>
  <g transform="translate(0.000000,200.000000) scale(0.100000,-0.100000)"
     fill="#000000" stroke="none">
    <path d="M0 1000 l0 -1000 1000 0 1000 0 0 1000 0 1000 -1000 0 -1000 0 0
-1000z m1155 695 c39 -8 113 -36 165 -61 80 -40 109 -61 185 -138 146 -147
207 -297 207 -501 -2 -397 -310 -705 -707 -707 -204 0 -354 61 -501 207 -77
76 -98 105 -138 185 -77 157 -97 325 -56 486 95 377 465 608 845 529z"/>
    <path d="M860 1645 c-36 -8 -107 -35 -158 -60 -233 -116 -373 -359 -359 -625
9 -169 69 -301 192 -426 67 -69 95 -89 175 -127 119 -56 178 -70 299 -69 111
1 187 19 286 67 246 119 396 392 365 665 -18 155 -79 281 -194 395 -85 84
-152 126 -266 165 -84 29 -247 36 -340 15z m285 -167 c151 -39 283 -163 345
-323 31 -80 34 -233 6 -315 -67 -200 -239 -337 -445 -356 -90 -8 -171 9 -266
55 -229 113 -336 378 -250 622 87 245 352 383 610 317z"/>
    <path d="M854 1417 c-128 -49 -232 -156 -274 -283 -19 -55 -22 -82 -18 -167 3
-88 8 -111 34 -167 103 -218 350 -320 573 -238 126 47 229 150 271 273 78 226
-24 467 -240 569 -58 28 -76 31 -175 33 -95 3 -118 0 -171 -20z"/>
  </g>
</svg>
