<?xml version="1.0" standalone="no"?>
<!DOCTYPE svg PUBLIC "-//W3C//DTD SVG 20010904//EN"
 "http://www.w3.org/TR/2001/REC-SVG-20010904/DTD/svg10.dtd">
<svg version="1.0" xmlns="http://www.w3.org/2000/svg"
 width="512.000000pt" height="512.000000pt" viewBox="0 0 512.000000 512.000000"
 preserveAspectRatio="xMidYMid meet">
<metadata>
Created by potrace 1.14, written by Peter Selinger 2001-2017
</metadata>
<g transform="translate(0.000000,512.000000) scale(0.100000,-0.100000)"
fill="#000000" stroke="none">
<path d="M2340 4806 c-3 -2 -21 -7 -40 -10 -122 -19 -251 -116 -326 -245 -75
-130 -134 -232 -156 -271 -14 -25 -63 -110 -110 -190 -47 -80 -145 -248 -218
-375 -73 -126 -146 -252 -162 -280 -16 -27 -34 -61 -41 -75 -6 -14 -17 -29
-24 -33 -8 -5 -11 -12 -8 -18 4 -5 1 -9 -4 -9 -6 0 -11 -6 -11 -14 0 -7 -10
-26 -22 -42 -13 -16 -22 -31 -21 -34 1 -3 -11 -25 -26 -50 -15 -25 -28 -48
-29 -53 -1 -4 -6 -13 -12 -20 -6 -6 -78 -129 -160 -272 -82 -143 -152 -265
-157 -270 -4 -6 -19 -32 -33 -58 -13 -26 -28 -47 -33 -47 -4 0 -6 -4 -2 -9 3
-5 -2 -16 -10 -24 -8 -9 -15 -20 -15 -26 0 -5 -6 -16 -12 -23 -7 -7 -22 -31
-34 -53 -12 -22 -68 -121 -126 -220 -57 -99 -111 -191 -119 -205 -8 -14 -19
-32 -26 -40 -6 -8 -11 -17 -10 -20 0 -3 -6 -16 -15 -30 -51 -84 -78 -132 -78
-140 0 -6 -5 -10 -12 -10 -6 0 -8 -3 -5 -6 4 -4 -2 -19 -12 -33 -48 -69 -216
-370 -234 -420 -63 -175 -13 -384 123 -518 28 -28 120 -90 134 -91 5 0 12 -4
15 -9 9 -13 189 -114 211 -118 3 -1 32 -7 65 -14 58 -13 135 -16 186 -6 66 13
87 20 150 52 82 42 160 121 214 220 21 37 41 70 44 73 3 3 15 23 26 45 11 22
22 42 26 45 3 3 25 41 50 85 24 44 48 88 54 97 5 9 56 97 113 195 57 98 107
185 112 193 9 13 37 62 91 157 11 18 27 48 38 65 43 75 95 165 113 198 11 19
86 148 166 285 80 138 153 264 162 280 45 79 162 282 170 295 5 8 44 76 86
150 43 74 102 175 131 223 29 48 53 89 53 92 0 2 20 38 45 79 25 42 45 81 45
86 0 6 5 10 10 10 6 0 10 4 10 9 0 8 127 232 259 456 26 44 50 87 54 95 4 8
17 31 28 50 33 54 58 126 64 181 3 27 6 53 6 57 1 4 1 9 -1 12 -1 3 -3 25 -5
50 -4 70 -13 100 -47 170 -37 75 -130 175 -198 213 -25 14 -85 48 -135 76 -49
28 -117 60 -149 70 -54 16 -205 29 -216 17z"/>
<path d="M4438 1664 c-2 -1 -25 -5 -52 -8 -27 -4 -52 -9 -56 -11 -4 -2 -17 -6
-31 -9 -13 -2 -42 -12 -64 -22 -22 -10 -43 -17 -47 -16 -5 1 -8 -3 -8 -8 0 -5
-7 -10 -15 -10 -8 0 -15 -4 -15 -10 0 -5 -6 -10 -12 -10 -17 0 -102 -73 -146
-124 -128 -151 -177 -372 -128 -566 17 -64 56 -159 76 -183 6 -7 26 -33 45
-59 163 -220 502 -300 761 -182 347 158 479 583 282 911 -32 53 -104 134 -159
179 -28 23 -166 94 -190 97 -8 2 -19 6 -25 10 -15 9 -209 29 -216 21z"/>
</g>
</svg>
