<?xml version="1.0" encoding="UTF-8"?>
<!DOCTYPE svg PUBLIC "-//W3C//DTD SVG 1.1//EN" "http://www.w3.org/Graphics/SVG/1.1/DTD/svg11.dtd">
<svg xmlns="http://www.w3.org/2000/svg" version="1.1" width="512px" height="512px" style="shape-rendering:geometricPrecision; text-rendering:geometricPrecision; image-rendering:optimizeQuality; fill-rule:evenodd; clip-rule:evenodd" xmlns:xlink="http://www.w3.org/1999/xlink">
<g><path style="opacity:0.969" fill="#6bb0cc" d="M 290.5,51.5 C 251.73,66.5377 212.73,81.2044 173.5,95.5C 182.139,79.56 191.306,63.8933 201,48.5C 215.732,31.9385 233.898,26.4385 255.5,32C 267.842,37.4994 279.509,43.9994 290.5,51.5 Z"/></g>
<g><path style="opacity:0.986" fill="#6cabca" d="M 290.5,51.5 C 305.14,63.105 311.14,78.105 308.5,96.5C 250.5,118.167 192.5,139.833 134.5,161.5C 147.876,139.684 160.876,117.684 173.5,95.5C 212.73,81.2044 251.73,66.5377 290.5,51.5 Z"/></g>
<g><path style="opacity:0.985" fill="#6da6c8" d="M 308.5,96.5 C 308.269,101.698 307.103,106.698 305,111.5C 300.637,119.336 296.137,127.003 291.5,134.5C 231.751,156.638 172.084,178.972 112.5,201.5C 119.835,188.162 127.169,174.829 134.5,161.5C 192.5,139.833 250.5,118.167 308.5,96.5 Z"/></g>
<g><path style="opacity:0.983" fill="#6ea3c7" d="M 291.5,134.5 C 289.019,140.13 286.019,145.463 282.5,150.5C 222.833,172.5 163.167,194.5 103.5,216.5C 106.263,211.299 109.263,206.299 112.5,201.5C 172.084,178.972 231.751,156.638 291.5,134.5 Z"/></g>
<g><path style="opacity:0.985" fill="#6f9fc5" d="M 282.5,150.5 C 272.895,167.252 262.895,184.252 252.5,201.5C 192.947,224.109 133.281,246.442 73.5,268.5C 83.1694,250.432 93.1694,233.098 103.5,216.5C 163.167,194.5 222.833,172.5 282.5,150.5 Z"/></g>
<g><path style="opacity:0.985" fill="#709ac3" d="M 252.5,201.5 C 248.264,210.402 243.597,219.068 238.5,227.5C 178.489,249.84 118.489,272.173 58.5,294.5C 63.5289,285.766 68.5289,277.099 73.5,268.5C 133.281,246.442 192.947,224.109 252.5,201.5 Z"/></g>
<g><path style="opacity:0.986" fill="#7197c2" d="M 238.5,227.5 C 231.901,237.702 225.568,248.036 219.5,258.5C 190.793,268.399 162.459,279.066 134.5,290.5C 124.129,295.071 113.463,299.071 102.5,302.5C 81.8333,309.833 61.1667,317.167 40.5,324.5C 46.8977,314.762 52.8977,304.762 58.5,294.5C 118.489,272.173 178.489,249.84 238.5,227.5 Z"/></g>
<g><path style="opacity:0.994" fill="#7196c1" d="M 219.5,258.5 C 219.5,258.833 219.5,259.167 219.5,259.5C 191.231,270.034 162.898,280.367 134.5,290.5C 162.459,279.066 190.793,268.399 219.5,258.5 Z"/></g>
<g><path style="opacity:0.984" fill="#7192c0" d="M 219.5,259.5 C 210.433,275.964 201.1,292.297 191.5,308.5C 131.5,330.833 71.5,353.167 11.5,375.5C 20.8333,359.167 30.1667,342.833 39.5,326.5C 60.8875,319.264 81.8875,311.264 102.5,302.5C 113.463,299.071 124.129,295.071 134.5,290.5C 162.898,280.367 191.231,270.034 219.5,259.5 Z"/></g>
<g><path style="opacity:0.97" fill="#7196c1" d="M 102.5,302.5 C 81.8875,311.264 60.8875,319.264 39.5,326.5C 39.8333,325.833 40.1667,325.167 40.5,324.5C 61.1667,317.167 81.8333,309.833 102.5,302.5 Z"/></g>
<g><path style="opacity:0.99" fill="#738cbd" d="M 191.5,308.5 C 181.932,325.229 171.932,342.229 161.5,359.5C 107.72,379.225 54.053,399.225 0.5,419.5C -0.104781,410.006 0.728552,400.672 3,391.5C 5.66069,386.024 8.49402,380.691 11.5,375.5C 71.5,353.167 131.5,330.833 191.5,308.5 Z"/></g>
<g><path style="opacity:0.853" fill="#767db7" d="M 457.5,345.5 C 437.72,352.558 418.053,359.891 398.5,367.5C 400.933,363.232 404.266,359.732 408.5,357C 423.48,346.669 439.814,342.836 457.5,345.5 Z"/></g>
<g><path style="opacity:0.958" fill="#757cb7" d="M 457.5,345.5 C 458.5,345.5 459.5,345.5 460.5,345.5C 439.463,354.071 418.129,362.071 396.5,369.5C 396.833,368.5 397.5,367.833 398.5,367.5C 418.053,359.891 437.72,352.558 457.5,345.5 Z"/></g>
<g><path style="opacity:0.979" fill="#777ab6" d="M 460.5,345.5 C 475.511,348.499 487.845,355.832 497.5,367.5C 459.5,381.5 421.5,395.5 383.5,409.5C 383.289,394.612 387.623,381.278 396.5,369.5C 418.129,362.071 439.463,354.071 460.5,345.5 Z"/></g>
<g><path style="opacity:0.987" fill="#7488bc" d="M 161.5,359.5 C 157.819,366.198 154.152,372.865 150.5,379.5C 102.019,397.105 53.6857,415.105 5.5,433.5C 3.43586,428.974 1.76919,424.308 0.5,419.5C 54.053,399.225 107.72,379.225 161.5,359.5 Z"/></g>
<g><path style="opacity:0.988" fill="#7777b5" d="M 497.5,367.5 C 502.458,373.746 506.124,380.746 508.5,388.5C 468.224,402.98 428.224,417.98 388.5,433.5C 385.065,425.999 383.399,417.999 383.5,409.5C 421.5,395.5 459.5,381.5 497.5,367.5 Z"/></g>
<g><path style="opacity:0.984" fill="#7485ba" d="M 150.5,379.5 C 143.486,390.869 136.486,402.203 129.5,413.5C 94.397,426.218 59.397,439.218 24.5,452.5C 16.5213,447.855 10.188,441.521 5.5,433.5C 53.6857,415.105 102.019,397.105 150.5,379.5 Z"/></g>
<g><path style="opacity:0.983" fill="#7875b4" d="M 508.5,388.5 C 509.5,391.167 510.5,393.833 511.5,396.5C 511.5,404.5 511.5,412.5 511.5,420.5C 500.73,458.721 475.397,475.888 435.5,472C 413.076,467.157 397.409,454.324 388.5,433.5C 428.224,417.98 468.224,402.98 508.5,388.5 Z"/></g>
<g><path style="opacity:0.964" fill="#7581b9" d="M 129.5,413.5 C 123.706,426.423 116.872,438.756 109,450.5C 92.0609,469.527 71.5609,474.693 47.5,466C 39.664,461.637 31.9973,457.137 24.5,452.5C 59.397,439.218 94.397,426.218 129.5,413.5 Z"/></g>
</svg>
